HIERARCHY
ROOT Hips
{
	OFFSET -0.179506 -22.333345 2.821913
	CHANNELS 6 Xposition Yposition Zposition Zrotation Yrotation Xrotation 
	JOINT LeftUpLeg
	{
		OFFSET 6.951974 -9.140623 -0.681533
		CHANNELS 3 Zrotation Yrotation Xrotation
		JOINT LeftLeg
		{
			OFFSET 3.427654 -37.519855 -0.449580
			CHANNELS 3 Zrotation Yrotation Xrotation
			JOINT LeftFoot
			{
				OFFSET -1.359570 -39.796059 -4.369333
				CHANNELS 3 Zrotation Yrotation Xrotation
				JOINT LeftToe
				{
					OFFSET 2.635814 -5.579078 11.928840
					CHANNELS 3 Zrotation Yrotation Xrotation
					End Site
					{
						OFFSET 0.000000 0.000000 0.000000
					}
				}
			}
		}
	}
	JOINT RightUpLeg
	{
		OFFSET -6.767048 -9.052170 -0.431982
		CHANNELS 3 Zrotation Yrotation Xrotation
		JOINT RightLeg
		{
			OFFSET -3.829005 -38.256897 -0.885003
			CHANNELS 3 Zrotation Yrotation Xrotation
			JOINT RightFoot
			{
				OFFSET 1.577377 -39.841461 -4.231180
				CHANNELS 3 Zrotation Yrotation Xrotation
				JOINT RightToe
				{
					OFFSET -2.537174 -4.814398 12.334795
					CHANNELS 3 Zrotation Yrotation Xrotation
					End Site
					{
						OFFSET 0.000000 0.000000 0.000000
					}
				}
			}
		}
	}
	JOINT Spine
	{
		OFFSET -0.253288 10.896323 -2.669631
		CHANNELS 3 Zrotation Yrotation Xrotation
		JOINT Spine1
		{
			OFFSET 0.548704 13.518043 0.109247
			CHANNELS 3 Zrotation Yrotation Xrotation
			JOINT Spine2
			{
				OFFSET 0.145701 5.292222 2.542457
				CHANNELS 3 Zrotation Yrotation Xrotation
				JOINT Neck
				{
					OFFSET -0.277840 21.387037 -4.285703
					CHANNELS 3 Zrotation Yrotation Xrotation
					JOINT Head
					{
						OFFSET 0.515184 6.496960 5.134897
						CHANNELS 3 Zrotation Yrotation Xrotation
						End Site
						{
							OFFSET 0.000000 0.000000 0.000000
						}
					}
				}
				JOINT LeftShoulder
				{
					OFFSET 7.884473 12.174932 -3.408961
					CHANNELS 3 Zrotation Yrotation Xrotation
					JOINT LeftArm
					{
						OFFSET 9.097692 3.046888 -0.886815
						CHANNELS 3 Zrotation Yrotation Xrotation
						JOINT LeftForeArm
						{
							OFFSET 25.961220 -1.277207 -2.745643
							CHANNELS 3 Zrotation Yrotation Xrotation
							JOINT LeftHand
							{
								OFFSET 24.923361 0.898606 -0.117091
								CHANNELS 3 Zrotation Yrotation Xrotation
								End Site
								{
									OFFSET 0.000000 0.000000 0.000000
								}
							}
						}
					}
				}
				JOINT RightShoulder
				{
					OFFSET -8.175920 11.883285 -3.861528
					CHANNELS 3 Zrotation Yrotation Xrotation
					JOINT RightArm
					{
						OFFSET -9.601238 3.255117 -0.914307
						CHANNELS 3 Zrotation Yrotation Xrotation
						JOINT RightForeArm
						{
							OFFSET -25.374195 -1.332924 -2.140099
							CHANNELS 3 Zrotation Yrotation Xrotation
							JOINT RightHand
							{
								OFFSET -25.529810 0.777228 -0.555919
								CHANNELS 3 Zrotation Yrotation Xrotation
								End Site
								{
									OFFSET 0.000000 0.000000 0.000000
								}
							}
						}
					}
				}
			}
		}
	}
}
MOTION
Frames: 7
Frame Time: 0.033333
-0.179506 100.054436 2.821913 170.261977 46.694182 179.522542 7.712036 2.370782 -41.749077 -2.005011 16.860246 10.159713 -11.674607 9.814869 19.162983 4.559260 -0.326606 1.338578 -4.587512 -10.682688 13.883575 -3.014659 -0.313459 16.995519 3.649818 -10.299505 -1.527871 3.784012 -1.381593 1.407588 3.115899 7.347683 5.150269 -8.981668 1.991634 3.156366 0.355530 2.841714 -4.712612 -8.807922 1.406770 7.735373 0.038181 15.988800 1.361063 -6.988169 -1.721808 3.446659 -16.102974 7.941998 24.936350 -133.227312 -53.724746 143.463895 -6.087795 -27.975662 -4.728309 -32.522903 10.969211 -17.639536 -15.379316 18.920033 -31.281104 -136.871229 59.216995 -142.105368 2.446825 14.243673 -5.136795 
1.666202 101.262955 0.446226 170.748415 46.569573 -178.377366 6.793146 1.102789 -39.630124 -1.461521 16.389665 8.333374 -11.932536 10.497930 19.528105 5.273089 -0.746535 1.350231 -4.466345 -11.065534 14.298561 -2.835194 -1.383278 16.023751 5.261881 -9.837795 4.364982 3.298801 -1.063766 1.375354 2.145972 8.009666 3.759126 -8.628720 2.609775 3.200216 0.767935 3.283535 -4.744287 -8.368653 0.745637 7.413557 0.435594 13.288027 2.144826 -6.972377 0.624142 4.005312 -14.853484 8.812195 25.117024 -135.522153 -53.892777 143.677700 -5.158233 -29.959005 -7.946080 -30.400317 10.643224 -16.419372 -13.867259 18.920652 -29.783800 -137.690972 57.678132 -142.502666 0.702050 15.918767 -6.278457 
3.612196 103.322334 -2.034544 170.708703 45.504846 -176.860219 5.517604 -0.564013 -36.540604 -0.993165 15.127985 6.589083 -12.032829 10.232716 20.006500 5.233398 -0.575128 1.578958 -4.530632 -10.995447 13.845950 -2.889300 -2.403981 15.381323 7.164649 -10.166315 10.295814 2.648004 -0.952382 1.629804 0.765378 8.629799 1.808829 -7.942329 3.244661 3.760374 1.050245 3.836936 -5.395421 -8.152712 -0.265796 7.784919 0.150206 10.781895 2.715193 -7.373745 2.614372 4.690791 -13.644187 8.903545 25.201322 -136.566268 -54.166281 143.128754 -3.689694 -30.837708 -9.228691 -27.740949 10.655905 -15.278835 -11.897454 19.403673 -28.142238 -140.841186 57.270292 -144.914452 -0.544017 16.183325 -7.159712 
5.333219 106.062027 -4.274395 170.827400 43.232208 -175.366699 3.886501 -1.726767 -33.240934 -1.065233 14.407158 5.738935 -11.990088 10.108653 21.523188 5.115739 -0.689066 1.665562 -3.760294 -11.481999 12.710864 -2.534843 -4.705495 14.717088 8.386967 -10.844827 15.184719 2.139136 -0.611215 1.754430 -0.466725 8.901504 0.601529 -7.114075 3.746973 3.510658 1.051966 4.059177 -5.390876 -7.359775 -1.832815 7.850536 0.507510 7.646921 3.246951 -7.605125 4.500700 5.251833 -13.622789 9.120178 24.701696 -136.281090 -54.991154 141.947826 -2.046443 -30.746149 -11.265346 -24.280408 10.244833 -13.252675 -8.597813 19.425601 -25.205711 -144.915847 56.880956 -147.885837 -1.748762 15.944705 -8.107661 
7.015232 109.215851 -6.345775 171.088510 40.774330 -175.391221 2.213121 -2.641410 -29.423448 -1.141655 13.973231 4.810802 -12.029846 9.629642 23.352387 4.613788 -0.515045 1.662791 -3.080437 -11.967725 9.995507 -2.117010 -7.784166 14.916980 9.738483 -12.034510 21.665295 1.311417 -0.253004 1.694449 -1.732325 8.986849 0.188998 -6.089152 4.297016 3.495214 1.241898 4.206392 -4.783866 -6.635584 -3.290602 7.318466 0.854683 4.744472 3.155165 -8.303683 6.813758 5.642867 -14.539362 10.063529 24.453076 -135.872884 -56.463298 140.158407 -3.953484 -30.704581 -13.785048 -20.313226 9.342861 -11.969144 -2.878613 20.176340 -20.936160 -146.548738 55.645450 -148.253069 -0.361849 15.667521 -11.050135 
8.598607 112.304245 -8.098712 171.529692 38.540737 -174.397634 0.388670 -3.340829 -26.090673 -1.715265 13.562978 5.942775 -11.263628 9.216899 25.397899 3.010198 0.023048 1.933618 -1.636482 -12.078504 5.931622 -1.762974 -11.454098 14.474953 10.224037 -13.380487 27.608996 0.937137 -0.541462 1.508928 -2.802600 8.426705 -0.164123 -4.501864 4.747534 3.824046 1.313727 3.948798 -4.576729 -5.999444 -4.069033 7.154170 1.530164 1.964486 3.136768 -9.380096 9.093867 6.948565 -16.210783 11.448530 24.599570 -133.665994 -57.840601 137.012498 -6.233570 -30.777772 -14.554612 -16.297200 8.041556 -10.110102 4.183503 19.206651 -15.141618 -152.030821 56.168800 -152.388705 2.397742 15.394032 -13.823766 
10.451080 114.718124 -9.948734 172.906250 35.669471 -173.106133 -0.304569 -3.278250 -22.935866 -1.705448 12.865308 7.033004 -10.816045 9.301062 27.484846 1.964831 0.758703 2.492519 0.128963 -11.286187 0.872165 -1.895404 -14.224213 15.001338 9.405959 -14.561186 30.934943 1.269343 -1.346392 1.461684 -3.726896 7.502834 -0.376747 -2.859665 4.714198 4.123123 1.891899 3.321900 -3.987344 -5.824136 -5.297650 6.131735 2.557742 0.069606 2.566878 -10.628104 11.653252 8.703107 -18.329959 13.539799 24.757236 -130.819273 -59.030689 132.541631 -7.691112 -30.983750 -16.604849 -12.335442 6.624903 -8.555579 12.443126 17.479586 -9.331775 -156.723876 57.141617 -156.784218 4.733620 15.354879 -16.705603 
